<svg xmlns="http://www.w3.org/2000/svg" xmlns:xlink="http://www.w3.org/1999/xlink" width="500" zoomAndPan="magnify" viewBox="0 0 375 374.999991" height="500" preserveAspectRatio="xMidYMid meet" version="1.0"><defs><g/><clipPath id="1ebeb31857"><path d="M 227.097656 169.230469 L 255.34375 169.230469 L 255.34375 197.480469 L 227.097656 197.480469 Z M 227.097656 169.230469 " clip-rule="nonzero"/></clipPath><clipPath id="deeb775b83"><path d="M 241.222656 169.230469 C 233.421875 169.230469 227.097656 175.554688 227.097656 183.355469 C 227.097656 191.15625 233.421875 197.480469 241.222656 197.480469 C 249.023438 197.480469 255.34375 191.15625 255.34375 183.355469 C 255.34375 175.554688 249.023438 169.230469 241.222656 169.230469 Z M 241.222656 169.230469 " clip-rule="nonzero"/></clipPath><clipPath id="a1702029e4"><path d="M 229 143 L 243 143 L 243 156.378906 L 229 156.378906 Z M 229 143 " clip-rule="nonzero"/></clipPath><clipPath id="b51933dd3f"><path d="M 299 122 L 312.4375 122 L 312.4375 136 L 299 136 Z M 299 122 " clip-rule="nonzero"/></clipPath><clipPath id="14c4a6e03e"><path d="M 206 65.628906 L 233 65.628906 L 233 94 L 206 94 Z M 206 65.628906 " clip-rule="nonzero"/></clipPath></defs><rect x="-37.5" width="450" fill="#ffffff" y="-37.499999" height="449.999989" fill-opacity="1"/><rect x="-37.5" width="450" fill="#dfe4e9" y="-37.499999" height="449.999989" fill-opacity="1"/><g fill="#100f0f" fill-opacity="1"><g transform="translate(147.632709, 298.319182)"><g><path d="M 18.921875 9.59375 L 38.03125 -28.140625 L 58.671875 -114.171875 L 81.328125 -102.703125 L 68.078125 -60.65625 L 94.125 -96.21875 L 116.796875 -84.734375 L 59.625 -17.21875 L 40.515625 20.515625 Z M 18.921875 9.59375 "/></g></g></g><g clip-path="url(#1ebeb31857)"><g clip-path="url(#deeb775b83)"><path fill="#00af5b" d="M 227.097656 169.230469 L 255.34375 169.230469 L 255.34375 197.480469 L 227.097656 197.480469 Z M 227.097656 169.230469 " fill-opacity="1" fill-rule="nonzero"/></g></g><path fill="#282727" d="M 266.347656 97.539062 C 264.859375 96.789062 263.277344 96.410156 261.644531 96.410156 C 260.007812 96.410156 258.425781 96.789062 256.941406 97.539062 C 255.53125 98.25 254.273438 99.261719 253.195312 100.542969 C 251.042969 103.113281 249.855469 106.511719 249.855469 110.109375 C 249.855469 113.710938 251.042969 117.109375 253.195312 119.679688 C 254.273438 120.960938 255.53125 121.972656 256.941406 122.683594 C 258.425781 123.433594 260.007812 123.816406 261.644531 123.816406 C 263.277344 123.816406 264.859375 123.433594 266.347656 122.683594 C 267.757812 121.972656 269.015625 120.960938 270.089844 119.679688 C 272.246094 117.109375 273.429688 113.710938 273.429688 110.109375 C 273.429688 106.511719 272.246094 103.113281 270.089844 100.542969 C 269.015625 99.261719 267.757812 98.25 266.347656 97.539062 Z M 261.644531 120.054688 C 257.214844 120.054688 253.613281 115.59375 253.613281 110.109375 C 253.613281 104.628906 257.214844 100.167969 261.644531 100.167969 C 266.070312 100.167969 269.671875 104.628906 269.671875 110.109375 C 269.671875 115.59375 266.070312 120.054688 261.644531 120.054688 Z M 261.644531 120.054688 " fill-opacity="1" fill-rule="nonzero"/><path fill="#282727" d="M 275.085938 116.066406 C 275.222656 116.546875 275.535156 116.949219 275.976562 117.195312 C 276.414062 117.441406 276.917969 117.503906 277.402344 117.367188 C 277.886719 117.230469 278.289062 116.914062 278.53125 116.476562 C 278.855469 115.902344 279.464844 115.542969 280.121094 115.542969 C 281.125 115.542969 281.941406 116.359375 281.941406 117.363281 C 281.941406 117.679688 281.875 117.9375 281.710938 118.25 C 281.417969 118.71875 279.726562 120.449219 278.820312 121.382812 C 275.742188 124.539062 275.074219 125.3125 275.019531 126.335938 C 274.988281 126.851562 275.175781 127.359375 275.527344 127.734375 C 275.882812 128.109375 276.378906 128.324219 276.894531 128.324219 L 283.820312 128.324219 C 284.855469 128.324219 285.699219 127.480469 285.699219 126.445312 C 285.699219 125.40625 284.855469 124.5625 283.820312 124.5625 L 280.96875 124.5625 C 281.15625 124.371094 281.335938 124.1875 281.496094 124.023438 L 281.507812 124.011719 C 283.363281 122.109375 284.519531 120.90625 284.980469 120.105469 L 284.984375 120.097656 C 284.992188 120.082031 285 120.070312 285.007812 120.058594 C 285.472656 119.1875 285.699219 118.308594 285.699219 117.363281 C 285.699219 114.289062 283.199219 111.785156 280.121094 111.785156 C 278.105469 111.785156 276.242188 112.875 275.257812 114.636719 C 275.007812 115.074219 274.949219 115.582031 275.085938 116.066406 Z M 275.085938 116.066406 " fill-opacity="1" fill-rule="nonzero"/><path fill="#282727" d="M 238.039062 95.132812 C 238.371094 95.363281 238.746094 95.472656 239.121094 95.472656 C 239.714844 95.472656 240.300781 95.195312 240.667969 94.667969 C 246.375 86.515625 255.71875 81.644531 265.65625 81.644531 C 268.335938 81.644531 270.992188 81.992188 273.558594 82.679688 C 274.5625 82.949219 275.597656 82.351562 275.867188 81.34375 C 276.136719 80.339844 275.539062 79.304688 274.53125 79.035156 C 271.652344 78.261719 268.664062 77.871094 265.65625 77.871094 C 262.808594 77.871094 259.976562 78.222656 257.238281 78.914062 C 254.582031 79.585938 252.003906 80.582031 249.582031 81.871094 C 244.828125 84.40625 240.675781 88.082031 237.578125 92.503906 C 236.980469 93.359375 237.1875 94.535156 238.039062 95.132812 Z M 238.039062 95.132812 " fill-opacity="1" fill-rule="nonzero"/><path fill="#282727" d="M 299.914062 112.148438 C 299.914062 109.242188 299.546875 106.355469 298.828125 103.566406 C 298.570312 102.558594 297.542969 101.949219 296.53125 102.210938 C 295.523438 102.472656 294.917969 103.5 295.175781 104.507812 C 295.816406 106.992188 296.140625 109.5625 296.140625 112.148438 C 296.140625 128.972656 282.464844 142.65625 265.65625 142.65625 C 251.414062 142.65625 238.886719 132.566406 235.863281 118.667969 C 235.644531 117.648438 234.640625 117.003906 233.621094 117.222656 C 232.601562 117.445312 231.957031 118.449219 232.179688 119.46875 C 233.003906 123.269531 234.464844 126.875 236.515625 130.1875 C 238.53125 133.4375 241.054688 136.3125 244.019531 138.730469 C 247.011719 141.171875 250.359375 143.074219 253.972656 144.386719 C 257.710938 145.742188 261.644531 146.429688 265.65625 146.429688 C 270.277344 146.429688 274.765625 145.523438 278.988281 143.734375 C 283.070312 142.007812 286.734375 139.539062 289.878906 136.390625 C 293.023438 133.242188 295.496094 129.578125 297.21875 125.496094 C 299.007812 121.265625 299.914062 116.777344 299.914062 112.148438 Z M 299.914062 112.148438 " fill-opacity="1" fill-rule="nonzero"/><path fill="#282727" d="M 289.65625 100.429688 C 296.089844 100.429688 301.328125 95.191406 301.328125 88.75 C 301.328125 82.3125 296.089844 77.074219 289.65625 77.074219 C 283.21875 77.074219 277.984375 82.3125 277.984375 88.75 C 277.984375 95.191406 283.21875 100.429688 289.65625 100.429688 Z M 289.65625 80.847656 C 294.011719 80.847656 297.554688 84.390625 297.554688 88.75 C 297.554688 93.109375 294.011719 96.65625 289.65625 96.65625 C 285.300781 96.65625 281.757812 93.109375 281.757812 88.75 C 281.757812 84.390625 285.300781 80.847656 289.65625 80.847656 Z M 289.65625 80.847656 " fill-opacity="1" fill-rule="nonzero"/><g clip-path="url(#a1702029e4)"><path fill="#282727" d="M 235.757812 143.855469 C 232.304688 143.855469 229.5 146.664062 229.5 150.117188 C 229.5 153.570312 232.304688 156.378906 235.757812 156.378906 C 239.207031 156.378906 242.015625 153.570312 242.015625 150.117188 C 242.015625 146.664062 239.207031 143.855469 235.757812 143.855469 Z M 235.757812 152.605469 C 234.386719 152.605469 233.269531 151.488281 233.269531 150.117188 C 233.269531 148.746094 234.386719 147.628906 235.757812 147.628906 C 237.128906 147.628906 238.242188 148.746094 238.242188 150.117188 C 238.242188 151.488281 237.128906 152.605469 235.757812 152.605469 Z M 235.757812 152.605469 " fill-opacity="1" fill-rule="nonzero"/></g><g clip-path="url(#b51933dd3f)"><path fill="#282727" d="M 306.164062 122.644531 C 302.710938 122.644531 299.90625 125.453125 299.90625 128.90625 C 299.90625 132.359375 302.710938 135.167969 306.164062 135.167969 C 309.613281 135.167969 312.421875 132.359375 312.421875 128.90625 C 312.421875 125.453125 309.613281 122.644531 306.164062 122.644531 Z M 306.164062 131.394531 C 304.792969 131.394531 303.675781 130.277344 303.675781 128.90625 C 303.675781 127.535156 304.792969 126.417969 306.164062 126.417969 C 307.535156 126.417969 308.648438 127.535156 308.648438 128.90625 C 308.648438 130.277344 307.535156 131.394531 306.164062 131.394531 Z M 306.164062 131.394531 " fill-opacity="1" fill-rule="nonzero"/></g><path fill="#282727" d="M 299.441406 138.257812 C 294.695312 138.257812 290.835938 142.121094 290.835938 146.867188 C 290.835938 151.617188 294.695312 155.480469 299.441406 155.480469 C 304.1875 155.480469 308.046875 151.617188 308.046875 146.867188 C 308.046875 142.121094 304.1875 138.257812 299.441406 138.257812 Z M 299.441406 151.707031 C 296.777344 151.707031 294.605469 149.535156 294.605469 146.867188 C 294.605469 144.199219 296.777344 142.03125 299.441406 142.03125 C 302.109375 142.03125 304.277344 144.199219 304.277344 146.867188 C 304.277344 149.535156 302.109375 151.707031 299.441406 151.707031 Z M 299.441406 151.707031 " fill-opacity="1" fill-rule="nonzero"/><path fill="#282727" d="M 290.230469 86.910156 C 290.929688 86.910156 291.496094 87.476562 291.496094 88.175781 C 291.496094 89.21875 292.339844 90.066406 293.382812 90.066406 C 294.425781 90.066406 295.269531 89.21875 295.269531 88.175781 C 295.269531 85.398438 293.007812 83.132812 290.230469 83.132812 C 289.1875 83.132812 288.34375 83.980469 288.34375 85.019531 C 288.34375 86.0625 289.1875 86.910156 290.230469 86.910156 Z M 290.230469 86.910156 " fill-opacity="1" fill-rule="nonzero"/><g clip-path="url(#14c4a6e03e)"><path fill="#282727" d="M 223.691406 84.613281 C 225.265625 82.890625 229.121094 81.835938 230.476562 81.578125 C 231.402344 81.402344 232.058594 80.570312 232.007812 79.625 C 231.960938 78.683594 231.226562 77.921875 230.289062 77.84375 C 230.246094 77.839844 225.914062 77.421875 223.6875 74.902344 C 221.363281 72.273438 220.859375 67.421875 220.851562 67.375 C 220.761719 66.441406 220 65.714844 219.058594 65.671875 C 218.121094 65.628906 217.296875 66.285156 217.121094 67.210938 C 216.703125 69.460938 215.570312 73.539062 214.332031 74.90625 C 213.121094 76.242188 209.484375 77.484375 207.480469 77.953125 C 206.574219 78.164062 205.953125 79.003906 206.023438 79.933594 C 206.09375 80.863281 206.824219 81.601562 207.753906 81.671875 C 207.792969 81.675781 211.933594 82.054688 214.378906 84.65625 C 216.859375 87.292969 217.167969 92.019531 217.171875 92.0625 C 217.222656 93.03125 218 93.800781 218.964844 93.84375 C 218.996094 93.847656 219.023438 93.847656 219.054688 93.847656 C 219.984375 93.847656 220.78125 93.164062 220.917969 92.234375 C 221.128906 90.816406 222.085938 86.371094 223.691406 84.613281 Z M 219.097656 84.960938 C 218.589844 83.941406 217.945312 82.941406 217.125 82.070312 C 216.15625 81.039062 215.03125 80.261719 213.914062 79.671875 C 215.152344 79.066406 216.328125 78.324219 217.128906 77.441406 C 217.828125 76.664062 218.429688 75.566406 218.929688 74.386719 C 219.433594 75.453125 220.066406 76.503906 220.863281 77.402344 C 221.78125 78.441406 222.890625 79.226562 224.015625 79.820312 C 222.707031 80.484375 221.667969 81.238281 220.90625 82.070312 C 220.183594 82.863281 219.585938 83.882812 219.097656 84.960938 Z M 219.097656 84.960938 " fill-opacity="1" fill-rule="nonzero"/></g><path fill="#282727" d="M 230.148438 114.035156 C 231.078125 114.035156 231.875 113.355469 232.015625 112.429688 C 232.234375 110.960938 232.917969 108.484375 233.742188 107.578125 C 234.589844 106.652344 236.808594 105.9375 238.007812 105.707031 C 238.9375 105.53125 239.597656 104.695312 239.546875 103.75 C 239.492188 102.808594 238.757812 102.046875 237.816406 101.972656 C 237.058594 101.902344 234.859375 101.441406 233.746094 100.183594 C 232.550781 98.828125 232.0625 96.285156 231.972656 95.421875 C 231.882812 94.488281 231.121094 93.761719 230.183594 93.71875 C 229.242188 93.679688 228.417969 94.332031 228.242188 95.257812 C 227.957031 96.78125 227.203125 99.398438 226.5 100.179688 C 225.820312 100.929688 223.507812 101.75 222.164062 102.0625 C 221.257812 102.273438 220.640625 103.113281 220.710938 104.042969 C 220.78125 104.972656 221.515625 105.710938 222.445312 105.78125 C 222.46875 105.785156 225.042969 106.027344 226.539062 107.617188 C 227.804688 108.960938 228.214844 111.425781 228.265625 112.253906 C 228.320312 113.21875 229.09375 113.988281 230.058594 114.035156 C 230.089844 114.035156 230.121094 114.035156 230.148438 114.035156 Z M 227.890625 103.839844 C 228.425781 103.511719 228.914062 103.132812 229.292969 102.714844 C 229.585938 102.390625 229.851562 101.996094 230.09375 101.566406 C 230.339844 101.957031 230.613281 102.335938 230.921875 102.683594 C 231.347656 103.164062 231.820312 103.566406 232.316406 103.910156 C 231.8125 104.234375 231.347656 104.609375 230.957031 105.035156 C 230.660156 105.359375 230.394531 105.734375 230.15625 106.136719 C 229.902344 105.75 229.613281 105.375 229.285156 105.027344 C 228.847656 104.566406 228.375 104.175781 227.890625 103.839844 Z M 227.890625 103.839844 " fill-opacity="1" fill-rule="nonzero"/><g fill="#100f0f" fill-opacity="1"><g transform="translate(17.014133, 304.702626)"><g><path d="M 17.484375 0 L 1.640625 -128.53125 L 26.15625 -128.53125 L 35.5625 -41.09375 L 43.9375 -128.53125 L 68.453125 -128.53125 L 52.609375 0 Z M 17.484375 0 "/></g></g></g><g fill="#100f0f" fill-opacity="1"><g transform="translate(279.037779, 302.658481)"><g><path d="M 35.421875 1.203125 C 24.859375 1.203125 17.007812 -1.785156 11.875 -7.765625 C 6.75 -13.742188 4.1875 -22.613281 4.1875 -34.375 L 4.1875 -128.359375 L 29.140625 -128.359375 L 29.140625 -35.421875 C 29.140625 -31.335938 29.535156 -28.148438 30.328125 -25.859375 C 31.128906 -23.566406 32.828125 -22.421875 35.421875 -22.421875 C 38.003906 -22.421875 39.691406 -23.539062 40.484375 -25.78125 C 41.285156 -28.019531 41.6875 -31.234375 41.6875 -35.421875 L 41.6875 -128.359375 L 66.65625 -128.359375 L 66.65625 -34.375 C 66.65625 -22.613281 64.085938 -13.742188 58.953125 -7.765625 C 53.816406 -1.785156 45.972656 1.203125 35.421875 1.203125 Z M 35.421875 1.203125 "/></g></g></g><g fill="#100f0f" fill-opacity="1"><g transform="translate(87.062571, 300.653498)"><g><path d="M 2.234375 0.046875 L 16.9375 -128.078125 L 60.40625 -127.3125 L 70.375 1.25 L 46.03125 0.828125 L 44.609375 -19.96875 L 29.0625 -20.25 L 27.203125 0.484375 Z M 31.375 -40.703125 L 43.03125 -40.5 L 38.515625 -105.875 L 37.328125 -105.890625 Z M 31.375 -40.703125 "/></g></g></g></svg>